<svg width="353" height="242" viewBox="0 0 353 242" fill="none" xmlns="http://www.w3.org/2000/svg">
<path d="M124.665 28.2641L135.345 22.4184L146.025 28.2641L135.345 34.7727L124.665 28.2641Z" fill="url(#paint0_linear_7_2102)"/>
<path d="M144.204 16.5728L154.885 10.7271L165.565 16.5728L154.885 23.0813L144.204 16.5728Z" fill="url(#paint1_linear_7_2102)"/>
<path d="M163.025 5.84567L173.705 0L184.385 5.84567L173.705 12.3542L163.025 5.84567Z" fill="url(#paint2_linear_7_2102)"/>
<path d="M143.845 39.4733L154.525 33.6277L165.205 39.4733L154.525 45.9819L143.845 39.4733Z" fill="url(#paint3_linear_7_2102)"/>
<path d="M163.384 27.782L174.065 21.9363L184.745 27.782L174.065 34.2906L163.384 27.782Z" fill="url(#paint4_linear_7_2102)"/>
<path d="M182.205 17.0549L192.885 11.2092L203.565 17.0549L192.885 23.5635L182.205 17.0549Z" fill="url(#paint5_linear_7_2102)"/>
<path d="M163.384 50.2004L174.065 44.3548L184.745 50.2004L174.065 56.709L163.384 50.2004Z" fill="url(#paint6_linear_7_2102)"/>
<path d="M182.924 38.5091L193.604 32.6634L204.284 38.5091L193.604 45.0177L182.924 38.5091Z" fill="url(#paint7_linear_7_2102)"/>
<path d="M201.744 27.782L212.424 21.9363L223.105 27.782L212.424 34.2906L201.744 27.782Z" fill="url(#paint8_linear_7_2102)"/>
<path d="M47.1436 175.892L1 149.169V204.716L10.0725 212.042V185.62L47.1436 207.418V197.75L10.0725 175.892V166.164L47.1436 188.022V175.892Z" fill="#000956" stroke="black"/>
<path d="M348 149.786L301.241 177.001V233L348 205.302V149.786Z" fill="#000956" stroke="#000956" stroke-width="10"/>
<path d="M178.653 158.569H160.811C159.628 158.569 158.493 159.04 157.657 159.878C156.82 160.716 156.35 161.853 156.35 163.038V198.79C156.35 199.975 156.82 201.112 157.657 201.95C158.493 202.788 159.628 203.259 160.811 203.259H187.574C188.757 203.259 189.892 202.788 190.728 201.95C191.565 201.112 192.035 199.975 192.035 198.79V171.976L178.653 158.569Z" stroke="#2F3437" stroke-width="2" stroke-linecap="round" stroke-linejoin="round"/>
<path d="M178.653 158.569V171.976H192.035" stroke="#2F3437" stroke-width="2" stroke-linecap="round" stroke-linejoin="round"/>
<path d="M167.502 187.617H180.883" stroke="#2F3437" stroke-width="2" stroke-linecap="round" stroke-linejoin="round"/>
<line x1="175.154" y1="71.537" x2="175.154" y2="139.273" stroke="url(#paint9_linear_7_2102)" stroke-width="5" stroke-linecap="round"/>
<line x1="284.59" y1="188.653" x2="216.991" y2="188.653" stroke="url(#paint10_linear_7_2102)" stroke-width="5" stroke-linecap="round"/>
<line x1="63.1791" y1="184.886" x2="130.778" y2="184.886" stroke="url(#paint11_linear_7_2102)" stroke-width="5" stroke-linecap="round"/>
<defs>
<linearGradient id="paint0_linear_7_2102" x1="173.933" y1="56.6975" x2="166.542" y2="-5.30537" gradientUnits="userSpaceOnUse">
<stop stop-color="#00042C"/>
<stop offset="1" stop-color="#6474FF"/>
</linearGradient>
<linearGradient id="paint1_linear_7_2102" x1="173.933" y1="56.6975" x2="166.542" y2="-5.30537" gradientUnits="userSpaceOnUse">
<stop stop-color="#00042C"/>
<stop offset="1" stop-color="#6474FF"/>
</linearGradient>
<linearGradient id="paint2_linear_7_2102" x1="173.933" y1="56.6975" x2="166.542" y2="-5.30537" gradientUnits="userSpaceOnUse">
<stop stop-color="#00042C"/>
<stop offset="1" stop-color="#6474FF"/>
</linearGradient>
<linearGradient id="paint3_linear_7_2102" x1="173.933" y1="56.6975" x2="166.542" y2="-5.30537" gradientUnits="userSpaceOnUse">
<stop stop-color="#00042C"/>
<stop offset="1" stop-color="#6474FF"/>
</linearGradient>
<linearGradient id="paint4_linear_7_2102" x1="173.933" y1="56.6975" x2="166.542" y2="-5.30537" gradientUnits="userSpaceOnUse">
<stop stop-color="#00042C"/>
<stop offset="1" stop-color="#6474FF"/>
</linearGradient>
<linearGradient id="paint5_linear_7_2102" x1="173.933" y1="56.6975" x2="166.542" y2="-5.30537" gradientUnits="userSpaceOnUse">
<stop stop-color="#00042C"/>
<stop offset="1" stop-color="#6474FF"/>
</linearGradient>
<linearGradient id="paint6_linear_7_2102" x1="173.933" y1="56.6975" x2="166.542" y2="-5.30537" gradientUnits="userSpaceOnUse">
<stop stop-color="#00042C"/>
<stop offset="1" stop-color="#6474FF"/>
</linearGradient>
<linearGradient id="paint7_linear_7_2102" x1="173.933" y1="56.6975" x2="166.542" y2="-5.30537" gradientUnits="userSpaceOnUse">
<stop stop-color="#00042C"/>
<stop offset="1" stop-color="#6474FF"/>
</linearGradient>
<linearGradient id="paint8_linear_7_2102" x1="173.933" y1="56.6975" x2="166.542" y2="-5.30537" gradientUnits="userSpaceOnUse">
<stop stop-color="#00042C"/>
<stop offset="1" stop-color="#6474FF"/>
</linearGradient>
<linearGradient id="paint9_linear_7_2102" x1="172.655" y1="138.999" x2="168.253" y2="73.1853" gradientUnits="userSpaceOnUse">
<stop stop-color="#090F3F"/>
<stop offset="1" stop-color="#000956" stop-opacity="0.1"/>
</linearGradient>
<linearGradient id="paint10_linear_7_2102" x1="217.26" y1="186.154" x2="282.951" y2="181.769" gradientUnits="userSpaceOnUse">
<stop stop-color="#090F3F"/>
<stop offset="1" stop-color="#000956" stop-opacity="0.1"/>
</linearGradient>
<linearGradient id="paint11_linear_7_2102" x1="130.51" y1="187.386" x2="64.8185" y2="191.771" gradientUnits="userSpaceOnUse">
<stop stop-color="#090F3F"/>
<stop offset="1" stop-color="#000956" stop-opacity="0.1"/>
</linearGradient>
</defs>
</svg>
