<svg width="30" height="29" viewBox="0 0 30 29" fill="none" xmlns="http://www.w3.org/2000/svg">
<g clip-path="url(#clip0_302_317)">
<rect width="29" height="29" transform="translate(0.5)" fill="#3944A4"/>
<path d="M-0.457365 -0.0282692L6.00067 -0.0437922L6.2668 6.40877L-0.542322 6.79104L-0.457365 -0.0282692Z" fill="white"/>
<path d="M11.8855 -0.608079L18.3435 -0.623601L18.6096 5.82896L11.8005 6.21123L11.8855 -0.608079Z" fill="white"/>
<path d="M23.4912 -0.871182L29.9492 -0.886705L30.2154 5.56586L23.4062 5.94813L23.4912 -0.871182Z" fill="white"/>
<path d="M-0.356216 11.953L6.10182 11.9375L6.36795 18.39L-0.441173 18.7723L-0.356216 11.953Z" fill="white"/>
<path d="M11.9866 11.3732L18.4446 11.3577L18.7108 17.8102L11.9017 18.1925L11.9866 11.3732Z" fill="white"/>
<path d="M23.5923 11.1101L30.0504 11.0946L30.3165 17.5471L23.5074 17.9294L23.5923 11.1101Z" fill="white"/>
<path d="M0.113477 23.7759L6.57151 23.7604L6.83764 30.213L0.0285197 30.5952L0.113477 23.7759Z" fill="white"/>
<path d="M12.4563 23.1961L18.9143 23.1806L19.1805 29.6332L12.3713 30.0154L12.4563 23.1961Z" fill="white"/>
<path d="M24.062 22.933L30.5201 22.9175L30.7862 29.37L23.9771 29.7523L24.062 22.933Z" fill="white"/>
</g>
<defs>
<clipPath id="clip0_302_317">
<rect width="29" height="29" fill="white" transform="translate(0.5)"/>
</clipPath>
</defs>
</svg>
