<svg width="250" height="48" viewBox="0 0 250 48" fill="none" xmlns="http://www.w3.org/2000/svg">
<path d="M0.663116 12.0307L4.88315 9.73347L9.10318 12.0307L4.88315 14.5884L0.663116 12.0307Z" fill="url(#paint0_linear_7_2126)"/>
<path d="M8.38366 7.43625L12.6037 5.13903L16.8237 7.43625L12.6037 9.99398L8.38366 7.43625Z" fill="url(#paint1_linear_7_2126)"/>
<path d="M15.82 3.22074L20.04 0.923523L24.2601 3.22074L20.04 5.77847L15.82 3.22074Z" fill="url(#paint2_linear_7_2126)"/>
<path d="M8.24157 16.4357L12.4616 14.1384L16.6816 16.4357L12.4616 18.9934L8.24157 16.4357Z" fill="url(#paint3_linear_7_2126)"/>
<path d="M15.9621 11.8412L20.1821 9.54401L24.4022 11.8412L20.1821 14.399L15.9621 11.8412Z" fill="url(#paint4_linear_7_2126)"/>
<path d="M23.3985 7.62571L27.6185 5.3285L31.8385 7.62571L27.6185 10.1834L23.3985 7.62571Z" fill="url(#paint5_linear_7_2126)"/>
<path d="M15.9621 20.6512L20.1821 18.354L24.4022 20.6512L20.1821 23.2089L15.9621 20.6512Z" fill="url(#paint6_linear_7_2126)"/>
<path d="M23.6827 16.0567L27.9027 13.7595L32.1227 16.0567L27.9027 18.6145L23.6827 16.0567Z" fill="url(#paint7_linear_7_2126)"/>
<path d="M31.119 11.8412L35.339 9.54401L39.5591 11.8412L35.339 14.399L31.119 11.8412Z" fill="url(#paint8_linear_7_2126)"/>
<path d="M18.1883 24.649L0 14.1102V36.0167L3.57608 38.906V28.4856L18.1883 37.0824V33.2695L3.57608 24.649V20.8124L18.1883 29.4329V24.649Z" fill="#000956"/>
<path d="M40 14.4181L21.646 25.099V47.0765L40 36.2062V14.4181Z" fill="#000956" stroke="#000956"/>
<path d="M71.488 13.26V16.236H62.048V22.796H69.408V25.772H62.048V35.5H58.4V13.26H71.488ZM78.5168 20.428C79.0501 19.532 79.7541 18.8387 80.6288 18.348C81.5248 17.836 82.5808 17.58 83.7968 17.58V21.356H82.8688C81.4394 21.356 80.3514 21.7187 79.6048 22.444C78.8794 23.1693 78.5168 24.428 78.5168 26.22V35.5H74.8688V17.868H78.5168V20.428ZM103.31 26.252C103.31 26.9133 103.267 27.5107 103.182 28.044H89.71C89.8167 29.452 90.3393 30.5827 91.278 31.436C92.2167 32.2893 93.3687 32.716 94.734 32.716C96.6967 32.716 98.0833 31.8947 98.894 30.252H102.83C102.297 31.8733 101.326 33.2067 99.918 34.252C98.5313 35.276 96.8033 35.788 94.734 35.788C93.0487 35.788 91.534 35.4147 90.19 34.668C88.8673 33.9 87.822 32.8333 87.054 31.468C86.3073 30.0813 85.934 28.4813 85.934 26.668C85.934 24.8547 86.2967 23.2653 87.022 21.9C87.7687 20.5133 88.8033 19.4467 90.126 18.7C91.47 17.9533 93.006 17.58 94.734 17.58C96.398 17.58 97.8807 17.9427 99.182 18.668C100.483 19.3933 101.497 20.4173 102.222 21.74C102.947 23.0413 103.31 24.5453 103.31 26.252ZM99.502 25.1C99.4807 23.756 99.0007 22.6787 98.062 21.868C97.1233 21.0573 95.9607 20.652 94.574 20.652C93.3153 20.652 92.238 21.0573 91.342 21.868C90.446 22.6573 89.9127 23.7347 89.742 25.1H99.502ZM123.06 26.252C123.06 26.9133 123.017 27.5107 122.932 28.044H109.46C109.567 29.452 110.089 30.5827 111.028 31.436C111.967 32.2893 113.119 32.716 114.484 32.716C116.447 32.716 117.833 31.8947 118.644 30.252H122.58C122.047 31.8733 121.076 33.2067 119.668 34.252C118.281 35.276 116.553 35.788 114.484 35.788C112.799 35.788 111.284 35.4147 109.94 34.668C108.617 33.9 107.572 32.8333 106.804 31.468C106.057 30.0813 105.684 28.4813 105.684 26.668C105.684 24.8547 106.047 23.2653 106.772 21.9C107.519 20.5133 108.553 19.4467 109.876 18.7C111.22 17.9533 112.756 17.58 114.484 17.58C116.148 17.58 117.631 17.9427 118.932 18.668C120.233 19.3933 121.247 20.4173 121.972 21.74C122.697 23.0413 123.06 24.5453 123.06 26.252ZM119.252 25.1C119.231 23.756 118.751 22.6787 117.812 21.868C116.873 21.0573 115.711 20.652 114.324 20.652C113.065 20.652 111.988 21.0573 111.092 21.868C110.196 22.6573 109.663 23.7347 109.492 25.1H119.252ZM129.882 32.524H137.882V35.5H125.658V32.524L133.69 20.844H125.658V17.868H137.882V20.844L129.882 32.524ZM149.361 35.788C147.697 35.788 146.193 35.4147 144.849 34.668C143.505 33.9 142.449 32.8333 141.681 31.468C140.913 30.0813 140.529 28.4813 140.529 26.668C140.529 24.876 140.923 23.2867 141.713 21.9C142.502 20.5133 143.579 19.4467 144.945 18.7C146.31 17.9533 147.835 17.58 149.521 17.58C151.206 17.58 152.731 17.9533 154.097 18.7C155.462 19.4467 156.539 20.5133 157.329 21.9C158.118 23.2867 158.513 24.876 158.513 26.668C158.513 28.46 158.107 30.0493 157.297 31.436C156.486 32.8227 155.377 33.9 153.969 34.668C152.582 35.4147 151.046 35.788 149.361 35.788ZM149.361 32.62C150.299 32.62 151.174 32.396 151.985 31.948C152.817 31.5 153.489 30.828 154.001 29.932C154.513 29.036 154.769 27.948 154.769 26.668C154.769 25.388 154.523 24.3107 154.033 23.436C153.542 22.54 152.891 21.868 152.081 21.42C151.27 20.972 150.395 20.748 149.457 20.748C148.518 20.748 147.643 20.972 146.833 21.42C146.043 21.868 145.414 22.54 144.945 23.436C144.475 24.3107 144.241 25.388 144.241 26.668C144.241 28.5667 144.721 30.0387 145.681 31.084C146.662 32.108 147.889 32.62 149.361 32.62ZM169.767 35.788C168.103 35.788 166.599 35.4147 165.255 34.668C163.911 33.9 162.855 32.8333 162.087 31.468C161.319 30.0813 160.935 28.4813 160.935 26.668C160.935 24.876 161.329 23.2867 162.119 21.9C162.908 20.5133 163.985 19.4467 165.351 18.7C166.716 17.9533 168.241 17.58 169.927 17.58C171.612 17.58 173.137 17.9533 174.503 18.7C175.868 19.4467 176.945 20.5133 177.735 21.9C178.524 23.2867 178.919 24.876 178.919 26.668C178.919 28.46 178.513 30.0493 177.703 31.436C176.892 32.8227 175.783 33.9 174.375 34.668C172.988 35.4147 171.452 35.788 169.767 35.788ZM169.767 32.62C170.705 32.62 171.58 32.396 172.391 31.948C173.223 31.5 173.895 30.828 174.407 29.932C174.919 29.036 175.175 27.948 175.175 26.668C175.175 25.388 174.929 24.3107 174.439 23.436C173.948 22.54 173.297 21.868 172.487 21.42C171.676 20.972 170.801 20.748 169.863 20.748C168.924 20.748 168.049 20.972 167.239 21.42C166.449 21.868 165.82 22.54 165.351 23.436C164.881 24.3107 164.647 25.388 164.647 26.668C164.647 28.5667 165.127 30.0387 166.087 31.084C167.068 32.108 168.295 32.62 169.767 32.62ZM186.173 20.428C186.706 19.532 187.41 18.8387 188.285 18.348C189.181 17.836 190.237 17.58 191.453 17.58V21.356H190.525C189.096 21.356 188.008 21.7187 187.261 22.444C186.536 23.1693 186.173 24.428 186.173 26.22V35.5H182.525V17.868H186.173V20.428ZM196.278 35.724C195.617 35.724 195.062 35.5 194.614 35.052C194.166 34.604 193.942 34.0493 193.942 33.388C193.942 32.7267 194.166 32.172 194.614 31.724C195.062 31.276 195.617 31.052 196.278 31.052C196.918 31.052 197.462 31.276 197.91 31.724C198.358 32.172 198.582 32.7267 198.582 33.388C198.582 34.0493 198.358 34.604 197.91 35.052C197.462 35.5 196.918 35.724 196.278 35.724ZM210.077 26.572L215.773 35.5H211.645L207.837 29.516L204.253 35.5H200.445L206.141 26.828L200.445 17.868H204.573L208.381 23.852L211.965 17.868H215.773L210.077 26.572ZM234.366 17.868L223.55 43.788H219.774L223.358 35.212L216.414 17.868H220.478L225.438 31.308L230.59 17.868H234.366ZM240.351 32.524H248.351V35.5H236.127V32.524L244.159 20.844H236.127V17.868H248.351V20.844L240.351 32.524Z" fill="black"/>
<defs>
<linearGradient id="paint0_linear_7_2126" x1="20.1303" y1="23.2044" x2="17.241" y2="-1.16507" gradientUnits="userSpaceOnUse">
<stop stop-color="#00042C"/>
<stop offset="1" stop-color="#6474FF"/>
</linearGradient>
<linearGradient id="paint1_linear_7_2126" x1="20.1303" y1="23.2044" x2="17.241" y2="-1.16507" gradientUnits="userSpaceOnUse">
<stop stop-color="#00042C"/>
<stop offset="1" stop-color="#6474FF"/>
</linearGradient>
<linearGradient id="paint2_linear_7_2126" x1="20.1303" y1="23.2044" x2="17.241" y2="-1.16507" gradientUnits="userSpaceOnUse">
<stop stop-color="#00042C"/>
<stop offset="1" stop-color="#6474FF"/>
</linearGradient>
<linearGradient id="paint3_linear_7_2126" x1="20.1303" y1="23.2044" x2="17.241" y2="-1.16507" gradientUnits="userSpaceOnUse">
<stop stop-color="#00042C"/>
<stop offset="1" stop-color="#6474FF"/>
</linearGradient>
<linearGradient id="paint4_linear_7_2126" x1="20.1303" y1="23.2044" x2="17.241" y2="-1.16507" gradientUnits="userSpaceOnUse">
<stop stop-color="#00042C"/>
<stop offset="1" stop-color="#6474FF"/>
</linearGradient>
<linearGradient id="paint5_linear_7_2126" x1="20.1303" y1="23.2044" x2="17.241" y2="-1.16507" gradientUnits="userSpaceOnUse">
<stop stop-color="#00042C"/>
<stop offset="1" stop-color="#6474FF"/>
</linearGradient>
<linearGradient id="paint6_linear_7_2126" x1="20.1303" y1="23.2044" x2="17.241" y2="-1.16507" gradientUnits="userSpaceOnUse">
<stop stop-color="#00042C"/>
<stop offset="1" stop-color="#6474FF"/>
</linearGradient>
<linearGradient id="paint7_linear_7_2126" x1="20.1303" y1="23.2044" x2="17.241" y2="-1.16507" gradientUnits="userSpaceOnUse">
<stop stop-color="#00042C"/>
<stop offset="1" stop-color="#6474FF"/>
</linearGradient>
<linearGradient id="paint8_linear_7_2126" x1="20.1303" y1="23.2044" x2="17.241" y2="-1.16507" gradientUnits="userSpaceOnUse">
<stop stop-color="#00042C"/>
<stop offset="1" stop-color="#6474FF"/>
</linearGradient>
</defs>
</svg>
