<svg width="30" height="30" viewBox="0 0 30 30" fill="none" xmlns="http://www.w3.org/2000/svg">
<path d="M19.6875 10.3125C17.0255 10.3125 14.6245 11.4333 12.9164 13.2211L11.7188 11.1253V7.93126C12.9145 7.24032 13.6416 5.94423 13.5914 4.5497C13.5211 2.59079 11.8683 0.970324 9.9075 0.93798C8.88047 0.922042 7.93687 1.3036 7.21453 2.01376C6.49172 2.72439 6.09375 3.67407 6.09375 4.68751C6.09375 6.02345 6.82078 7.26564 7.96875 7.93126V11.1253L6.29016 14.0625H3.28125C1.98891 14.0625 0.9375 15.1139 0.9375 16.4063V18.2813C0.9375 18.54 1.1475 18.75 1.40625 18.75H1.875V20.1563C1.875 20.415 2.085 20.625 2.34375 20.625H10.3598C10.8319 25.3556 14.8345 29.0625 19.6875 29.0625C24.8569 29.0625 29.0625 24.8569 29.0625 19.6875C29.0625 14.5181 24.8569 10.3125 19.6875 10.3125ZM1.875 16.4063C1.875 15.6309 2.50594 15 3.28125 15H6.5625C6.73078 15 6.88594 14.91 6.96938 14.7638L8.84438 11.4825C8.88516 11.4117 8.90625 11.3316 8.90625 11.25V7.6486C8.90625 7.46767 8.80219 7.30314 8.63906 7.22532C7.66219 6.76079 7.03125 5.76423 7.03125 4.68751C7.03125 3.9272 7.32984 3.21517 7.87172 2.6822C8.41359 2.14923 9.12984 1.86142 9.89156 1.87548C11.362 1.89985 12.6014 3.11485 12.6544 4.58345C12.6947 5.70517 12.0647 6.74204 11.0489 7.22532C10.8858 7.30314 10.7817 7.46767 10.7817 7.6486V11.25C10.7817 11.3316 10.8028 11.4117 10.8436 11.4825L12.2625 13.9655C11.978 14.3344 11.7258 14.7263 11.5008 15.1331C11.4745 15.18 11.4473 15.2259 11.422 15.2728C11.3156 15.473 11.2181 15.6774 11.1267 15.885C11.0775 15.9952 11.0311 16.1058 10.9866 16.2183C10.943 16.3289 10.9031 16.4409 10.8638 16.553C10.7841 16.7761 10.7133 17.0025 10.6505 17.2331C10.6383 17.2781 10.627 17.3236 10.6153 17.3686C10.5773 17.5163 10.5328 17.6616 10.5023 17.812H2.34375H1.875V16.4063ZM2.8125 19.6875V18.75H10.3598C10.3533 18.8133 10.3552 18.8789 10.35 18.9427C10.327 19.2 10.3125 19.4494 10.3125 19.6875H2.8125ZM20.1562 28.1011V26.7188H19.2188V28.1011C14.9409 27.8644 11.5106 24.4341 11.2739 20.1563H12.6562V19.2188H11.2739C11.2777 19.1475 11.2791 19.0753 11.2847 19.0045C11.3039 18.7974 11.3297 18.5831 11.3658 18.3549C11.4487 17.8336 11.5819 17.325 11.7572 16.8338C11.7806 16.7691 11.8031 16.7044 11.828 16.6406C11.8767 16.5131 11.9283 16.387 11.9836 16.2624C12.0684 16.0725 12.1561 15.8841 12.2541 15.7017C12.277 15.6586 12.3033 15.6174 12.3272 15.5747C12.4303 15.3905 12.5391 15.21 12.6558 15.0347C12.6802 14.9981 12.7045 14.9616 12.7294 14.925C14.168 12.8297 16.5277 11.423 19.2188 11.2739V12.6563H20.1562V11.2739C24.4341 11.5106 27.8644 14.9409 28.1011 19.2188H26.7188V20.1563H28.1011C27.8644 24.4341 24.4341 27.8644 20.1562 28.1011Z" fill="#000E8D"/>
</svg>
